<svg width="120" height="795" viewBox="0 0 120 795" fill="none" xmlns="http://www.w3.org/2000/svg">
<path d="M103.753 794.645C91.6431 794.645 79.5336 794.645 67.4087 794.645C61.1462 756.671 50.5292 695.047 35.4962 621.08C9.8462 494.735 -3.92509 454.078 0.983338 396.952C4.18382 359.804 12.5081 348.123 36.958 279.233C59.8537 214.76 75.9946 159.533 85.7653 124.201C91.7662 124.201 97.7517 124.201 103.753 124.201V794.645Z" fill="#1DB0BE"/>
<path d="M103.753 692.654C92.3068 692.654 80.861 692.654 69.4006 692.654C63.4814 653.535 53.4463 590.053 39.2372 513.857C14.6731 382.002 3.09644 343.181 6.61599 282.973C7.96854 259.799 10.8336 246.448 38.3355 143.932C53.33 88.0181 66.4192 40.0129 76.8615 2C85.8203 2 94.7792 2 103.753 2V692.654Z" fill="#1DB0BE"/>
<path d="M109.819 793.52C103.816 793.52 97.8289 793.52 91.8259 793.52C71.3081 691.797 53.9457 610.997 42.1398 557.131C13.9874 428.585 2.30473 384.099 7.01475 322.831C10.3241 279.775 19.0669 263.285 43.0018 183.512C65.9054 107.183 82.0673 41.8105 91.8259 0C97.8289 0 103.816 0 109.819 0V793.52Z" fill="#1D67BE"/>
<path d="M119.948 793.52C113.945 793.52 107.958 793.52 101.956 793.52C81.4389 691.797 64.0775 610.997 52.2723 557.131C24.1062 428.585 12.4241 384.099 17.1493 322.831C20.4584 279.775 29.2007 263.285 53.1342 183.512C76.0211 107.183 92.182 41.8105 101.956 0C107.958 0 113.945 0 119.948 0V793.52Z" fill="#0E49A1"/>
</svg>
